<?xml version="1.0" encoding="UTF-8" standalone="no"?>
<!DOCTYPE svg PUBLIC "-//W3C//DTD SVG 1.1//EN"
 "http://www.w3.org/Graphics/SVG/1.1/DTD/svg11.dtd">
<!-- Generated by graphviz version 2.38.0 (20140413.2041)
 -->
<!-- Title: models_diagram Pages: 1 -->
<svg width="404pt" height="509pt"
 viewBox="0.00 0.00 403.90 509.00" xmlns="http://www.w3.org/2000/svg" xmlns:xlink="http://www.w3.org/1999/xlink">
<g id="graph0" class="graph" transform="scale(1 1) rotate(0) translate(4 505)">
<title>models_diagram</title>
<polygon fill="none" stroke="none" points="-4,4 -4,-505 399.901,-505 399.901,4 -4,4"/>
<!-- ApplicationRecord -->
<g id="node1" class="node"><title>ApplicationRecord</title>
<ellipse fill="none" stroke="black" cx="77.3958" cy="-394.5" rx="77.2916" ry="18"/>
<text text-anchor="middle" x="77.3958" y="-390.3" font-family="Times,serif" font-size="14.00">ApplicationRecord</text>
</g>
<!-- Customer -->
<g id="node2" class="node"><title>Customer</title>
<path fill="none" stroke="black" d="M184.349,-288.5C184.349,-288.5 380.443,-288.5 380.443,-288.5 386.443,-288.5 392.443,-294.5 392.443,-300.5 392.443,-300.5 392.443,-488.5 392.443,-488.5 392.443,-494.5 386.443,-500.5 380.443,-500.5 380.443,-500.5 184.349,-500.5 184.349,-500.5 178.349,-500.5 172.349,-494.5 172.349,-488.5 172.349,-488.5 172.349,-300.5 172.349,-300.5 172.349,-294.5 178.349,-288.5 184.349,-288.5"/>
<text text-anchor="middle" x="282.396" y="-485.3" font-family="Times,serif" font-size="14.00">Customer</text>
<polyline fill="none" stroke="black" points="172.349,-478.5 392.443,-478.5 "/>
<text text-anchor="start" x="180.349" y="-463.3" font-family="Times,serif" font-size="14.00">updated_at :datetime</text>
<text text-anchor="start" x="180.349" y="-449.3" font-family="Times,serif" font-size="14.00">email :varchar(255)</text>
<text text-anchor="start" x="180.349" y="-435.3" font-family="Times,serif" font-size="14.00">encrypted_password :varchar(255)</text>
<text text-anchor="start" x="180.349" y="-421.3" font-family="Times,serif" font-size="14.00">reset_password_token :varchar(255)</text>
<text text-anchor="start" x="180.349" y="-407.3" font-family="Times,serif" font-size="14.00">reset_password_sent_at :datetime</text>
<text text-anchor="start" x="180.349" y="-393.3" font-family="Times,serif" font-size="14.00">remember_created_at :datetime</text>
<text text-anchor="start" x="180.349" y="-379.3" font-family="Times,serif" font-size="14.00">sign_in_count :int(11)</text>
<text text-anchor="start" x="180.349" y="-365.3" font-family="Times,serif" font-size="14.00">current_sign_in_at :datetime</text>
<text text-anchor="start" x="180.349" y="-351.3" font-family="Times,serif" font-size="14.00">last_sign_in_at :datetime</text>
<text text-anchor="start" x="180.349" y="-337.3" font-family="Times,serif" font-size="14.00">current_sign_in_ip :varchar(255)</text>
<text text-anchor="start" x="180.349" y="-323.3" font-family="Times,serif" font-size="14.00">last_sign_in_ip :varchar(255)</text>
<text text-anchor="start" x="180.349" y="-309.3" font-family="Times,serif" font-size="14.00">created_at :datetime</text>
<text text-anchor="start" x="180.349" y="-295.3" font-family="Times,serif" font-size="14.00">id :int(11)</text>
</g>
<!-- Message -->
<g id="node3" class="node"><title>Message</title>
<path fill="none" stroke="black" d="M226.89,-0.5C226.89,-0.5 335.901,-0.5 335.901,-0.5 341.901,-0.5 347.901,-6.5 347.901,-12.5 347.901,-12.5 347.901,-102.5 347.901,-102.5 347.901,-108.5 341.901,-114.5 335.901,-114.5 335.901,-114.5 226.89,-114.5 226.89,-114.5 220.89,-114.5 214.89,-108.5 214.89,-102.5 214.89,-102.5 214.89,-12.5 214.89,-12.5 214.89,-6.5 220.89,-0.5 226.89,-0.5"/>
<text text-anchor="middle" x="281.396" y="-99.3" font-family="Times,serif" font-size="14.00">Message</text>
<polyline fill="none" stroke="black" points="214.89,-92.5 347.901,-92.5 "/>
<text text-anchor="start" x="222.89" y="-77.3" font-family="Times,serif" font-size="14.00">id :int(11)</text>
<text text-anchor="start" x="222.89" y="-63.3" font-family="Times,serif" font-size="14.00">body :text</text>
<text text-anchor="start" x="222.89" y="-49.3" font-family="Times,serif" font-size="14.00">customer_id :int(11)</text>
<text text-anchor="start" x="222.89" y="-35.3" font-family="Times,serif" font-size="14.00">room_id :int(11)</text>
<text text-anchor="start" x="222.89" y="-21.3" font-family="Times,serif" font-size="14.00">created_at :datetime</text>
<text text-anchor="start" x="222.89" y="-7.3" font-family="Times,serif" font-size="14.00">updated_at :datetime</text>
</g>
<!-- Customer&#45;&gt;Message -->
<g id="edge2" class="edge"><title>Customer&#45;&gt;Message</title>
<path fill="none" stroke="#9d13a3" d="M256.354,-280.207C250.273,-239.41 247.167,-193.075 253.396,-151 254.681,-142.317 256.61,-133.321 258.867,-124.501"/>
<ellipse fill="none" stroke="#9d13a3" cx="256.994" cy="-284.336" rx="4.00001" ry="4.00001"/>
<polygon fill="#9d13a3" stroke="#9d13a3" points="258.922,-124.297 265.88,-115.821 260.229,-119.47 261.536,-114.644 261.536,-114.644 261.536,-114.644 260.229,-119.47 257.193,-113.468 258.922,-124.297 258.922,-124.297"/>
</g>
<!-- Room -->
<g id="node4" class="node"><title>Room</title>
<path fill="none" stroke="black" d="M274.89,-151.5C274.89,-151.5 383.901,-151.5 383.901,-151.5 389.901,-151.5 395.901,-157.5 395.901,-163.5 395.901,-163.5 395.901,-239.5 395.901,-239.5 395.901,-245.5 389.901,-251.5 383.901,-251.5 383.901,-251.5 274.89,-251.5 274.89,-251.5 268.89,-251.5 262.89,-245.5 262.89,-239.5 262.89,-239.5 262.89,-163.5 262.89,-163.5 262.89,-157.5 268.89,-151.5 274.89,-151.5"/>
<text text-anchor="middle" x="329.396" y="-236.3" font-family="Times,serif" font-size="14.00">Room</text>
<polyline fill="none" stroke="black" points="262.89,-229.5 395.901,-229.5 "/>
<text text-anchor="start" x="270.89" y="-214.3" font-family="Times,serif" font-size="14.00">id :int(11)</text>
<text text-anchor="start" x="270.89" y="-200.3" font-family="Times,serif" font-size="14.00">title :varchar(255)</text>
<text text-anchor="start" x="270.89" y="-186.3" font-family="Times,serif" font-size="14.00">customer_id :int(11)</text>
<text text-anchor="start" x="270.89" y="-172.3" font-family="Times,serif" font-size="14.00">created_at :datetime</text>
<text text-anchor="start" x="270.89" y="-158.3" font-family="Times,serif" font-size="14.00">updated_at :datetime</text>
</g>
<!-- Customer&#45;&gt;Room -->
<g id="edge1" class="edge"><title>Customer&#45;&gt;Room</title>
<path fill="none" stroke="#56f855" d="M310.258,-280.272C311.812,-273.959 313.339,-267.753 314.811,-261.769"/>
<ellipse fill="none" stroke="#56f855" cx="309.257" cy="-284.339" rx="4.00001" ry="4.00001"/>
<polygon fill="#56f855" stroke="#56f855" points="314.843,-261.641 321.602,-253.006 316.037,-256.786 317.232,-251.931 317.232,-251.931 317.232,-251.931 316.037,-256.786 312.863,-250.855 314.843,-261.641 314.843,-261.641"/>
</g>
<!-- Room&#45;&gt;Message -->
<g id="edge3" class="edge"><title>Room&#45;&gt;Message</title>
<path fill="none" stroke="#6b999e" d="M310.111,-143.449C308.03,-137.293 305.9,-130.992 303.787,-124.74"/>
<ellipse fill="none" stroke="#6b999e" cx="311.461" cy="-147.444" rx="4.00001" ry="4.00001"/>
<polygon fill="#6b999e" stroke="#6b999e" points="303.691,-124.457 304.752,-113.543 302.09,-119.721 300.489,-114.984 300.489,-114.984 300.489,-114.984 302.09,-119.721 296.226,-116.425 303.691,-124.457 303.691,-124.457"/>
</g>
</g>
</svg>
